# xmcd
#
# Track frame offsets:
#	150
#	14817
#	31905
#	50600
#	61411
#	73317
#	90548
#	101853
#	122611
#	143495
#	161566
#	172309
#	189760
#	204865
#	222054
#
# Disc length: 3166 seconds
#
# Revision: 6
# Processed by: cddbd v1.5.2PL0 Copyright (c) Steve Scherf et al.
# Submitted via: audiograbber 1.83.01
#
DISCID=d60c5c0f
DTITLE=Various Artist - Now That's What I Call Country Christmas, cd 2
DYEAR=2015
DGENRE=Christmas
TTITLE0=George Strait - Christmas Cookies
TTITLE1=Kenny Rogers - Winter Wonderland
TTITLE2=Alan Jackson - Let It Be Christmas
TTITLE3=Reba McEntire - Away In A Manger
TTITLE4=Randy Travis - Meet Me Under The Mistletoe
TTITLE5=Gary Allan - Please Come Home For Christmas
TTITLE6=Brooks and Dunn - Santa's Coming Over To Your House
TTITLE7=Johnny Cash - The Christmas Guest
TTITLE8=Alabama - Little Drummer Boy
TTITLE9=Montgomery Gentry - Merry Christmas From The Family
TTITLE10=Willie Nelson - Pretty Paper
TTITLE11=Trisha Yearwood - It Wasn't His Child
TTITLE12=LeAnn Rimes - Put A Little Holiday In Your Heart
TTITLE13=SHeDaisy - Deck The Halls
TTITLE14=Rascal Flatts - I'll Be Home For Christmas
EXTD=
EXTT0=
EXTT1=
EXTT2=
EXTT3=
EXTT4=
EXTT5=
EXTT6=
EXTT7=
EXTT8=
EXTT9=
EXTT10=
EXTT11=
EXTT12=
EXTT13=
EXTT14=
PLAYORDER=
